<?xml version="1.0" encoding="utf-8"?>
<!-- Generator: Adobe Illustrator 22.0.1, SVG Export Plug-In . SVG Version: 6.00 Build 0)  -->
<svg version="1.1" id="Layer_1" xmlns="http://www.w3.org/2000/svg" xmlns:xlink="http://www.w3.org/1999/xlink" x="0px" y="0px"
	 viewBox="0 0 369.5 155.3" style="enable-background:new 0 0 369.5 155.3;" xml:space="preserve">
<style type="text/css">
	.st0{fill:#FFFFFF;}
	.st1{fill:#E9B379;}
	.st2{fill:#E9BF92;}
	.st3{fill:#EABE74;}
	.st4{fill:#FAAA3F;}
</style>
<g>
	<path class="st0" d="M37.8,143.4c0.3,0,0.7,0.1,0.9,0.4l2.5,2.7c-1.9,2.2-4.2,3.9-6.9,5.1c-2.7,1.2-5.9,1.8-9.8,1.8
		c-3.3,0-6.4-0.6-9.1-1.7c-2.7-1.2-5-2.8-6.9-4.8c-1.9-2.1-3.4-4.6-4.5-7.5s-1.6-6.1-1.6-9.6c0-3.5,0.6-6.7,1.7-9.6
		c1.1-2.9,2.7-5.4,4.8-7.5c2-2.1,4.5-3.7,7.3-4.9c2.8-1.1,6-1.7,9.4-1.7c3.4,0,6.3,0.5,8.8,1.6s4.6,2.5,6.6,4.3l-2,2.9
		c-0.2,0.2-0.3,0.4-0.5,0.5s-0.5,0.2-0.8,0.2s-0.6-0.1-0.9-0.3c-0.3-0.2-0.7-0.5-1.1-0.8c-0.4-0.3-0.9-0.6-1.5-1
		c-0.6-0.3-1.3-0.7-2.1-1s-1.7-0.6-2.8-0.8c-1.1-0.2-2.3-0.3-3.6-0.3c-2.5,0-4.7,0.4-6.8,1.3c-2.1,0.8-3.8,2.1-5.3,3.6
		s-2.6,3.5-3.5,5.7c-0.8,2.3-1.2,4.8-1.2,7.6c0,2.9,0.4,5.4,1.2,7.7c0.8,2.3,2,4.2,3.4,5.7c1.4,1.6,3.1,2.7,5.1,3.6
		c2,0.8,4.1,1.2,6.3,1.2c1.4,0,2.6-0.1,3.7-0.2c1.1-0.2,2.1-0.4,3-0.8c0.9-0.3,1.8-0.8,2.6-1.3s1.6-1.2,2.4-1.9
		C37.1,143.6,37.4,143.4,37.8,143.4z"/>
	<path class="st0" d="M76.2,134.6V153H70v-18.4l-16.9-27.8h5.4c0.6,0,1,0.1,1.3,0.4s0.6,0.6,0.8,1l10.6,18c0.4,0.8,0.8,1.5,1.1,2.1
		c0.3,0.6,0.6,1.3,0.8,2c0.2-0.7,0.5-1.3,0.8-2c0.3-0.7,0.6-1.4,1.1-2.1l10.5-18c0.2-0.3,0.5-0.7,0.8-1s0.8-0.5,1.3-0.5h5.5
		L76.2,134.6z"/>
	<path class="st0" d="M108,152.9v-46.2h14.7c2.8,0,5.3,0.3,7.3,0.8c2.1,0.6,3.7,1.4,5.1,2.4c1.3,1,2.3,2.3,2.9,3.8
		c0.6,1.5,1,3.2,1,5c0,1.1-0.2,2.2-0.5,3.3c-0.4,1.1-0.9,2-1.6,2.9c-0.7,0.9-1.6,1.7-2.7,2.4c-1.1,0.7-2.4,1.3-3.8,1.7
		c3.4,0.7,5.9,1.9,7.6,3.6c1.7,1.8,2.6,4.1,2.6,7c0,2-0.4,3.7-1.1,5.4s-1.8,3-3.2,4.2s-3.1,2.1-5.1,2.7c-2,0.6-4.3,1-6.9,1H108z
		 M114.2,127.4h8.3c1.8,0,3.3-0.2,4.6-0.6c1.3-0.4,2.4-0.9,3.2-1.6c0.8-0.7,1.5-1.5,1.9-2.5s0.6-2,0.6-3.2c0-2.7-0.8-4.7-2.5-6
		s-4.2-1.9-7.6-1.9h-8.5V127.4z M114.2,131.9V148h10c1.8,0,3.3-0.2,4.6-0.6s2.3-1,3.2-1.7s1.4-1.6,1.8-2.6c0.4-1,0.6-2.1,0.6-3.4
		c0-2.4-0.8-4.3-2.5-5.7s-4.2-2.1-7.7-2.1H114.2z"/>
	<path class="st0" d="M187.2,106.7v5.1H165v15.3h18v4.9h-18v15.8h22.2v5.1h-28.5v-46.2C158.7,106.7,187.2,106.7,187.2,106.7z"/>
	<path class="st0" d="M212.1,133.7V153h-6.2v-46.2H219c2.9,0,5.4,0.3,7.6,0.9c2.1,0.6,3.9,1.4,5.3,2.6s2.4,2.5,3.1,4
		c0.7,1.6,1,3.3,1,5.3c0,1.6-0.3,3.2-0.8,4.6c-0.5,1.4-1.3,2.7-2.2,3.8c-1,1.1-2.2,2.1-3.6,2.9c-1.4,0.8-3,1.4-4.8,1.8
		c0.8,0.5,1.5,1.1,2.1,2l13.5,18.3h-5.7c-1.1,0-2-0.4-2.5-1.3l-12-16.5c-0.4-0.5-0.8-0.9-1.2-1.1c-0.4-0.2-1.1-0.3-1.9-0.3h-4.8
		V133.7z M212.1,129.1h6.5c1.8,0,3.4-0.2,4.8-0.7c1.4-0.4,2.5-1.1,3.5-1.9c0.9-0.8,1.6-1.8,2.1-2.9c0.5-1.1,0.7-2.4,0.7-3.7
		c0-2.8-0.9-4.8-2.7-6.2s-4.5-2.1-8.1-2.1h-6.8V129.1z"/>
	<path class="st0" d="M253.4,131.2h15.9v4.9h-15.9V131.2z"/>
	<path class="st0" d="M315.7,106.7v5.1h-22.2V128h19v5.1h-19V153h-6.3v-46.2L315.7,106.7L315.7,106.7z"/>
	<path class="st0" d="M343.5,129.2l-15.3-22.5h6.2c0.5,0,0.8,0.1,1,0.2s0.4,0.4,0.6,0.6l12.1,18.5c0.2-0.5,0.4-0.9,0.7-1.5
		l11.4-16.9c0.2-0.3,0.4-0.5,0.6-0.7s0.5-0.3,0.8-0.3h6l-15.3,22.2l15.8,24h-6.2c-0.5,0-0.8-0.1-1.1-0.4c-0.3-0.2-0.5-0.5-0.7-0.8
		l-12.4-19.4c-0.2,0.5-0.3,0.9-0.6,1.3l-12,18.3c-0.2,0.3-0.4,0.6-0.7,0.8c-0.2,0.2-0.6,0.4-1,0.4h-5.8L343.5,129.2z"/>
	<path class="st1" d="M174.4,14.9c0,0,18.6-0.3,19.7,13.4c1.1,13.7-0.5,23.6-5,30.1s7.8,19.1,10.4,20.9c2.7,1.8-3.1,4.4-14.5-1.6
		c-11.3-6-18.1-4-13.2-19.5c5-15.5,0.5-22.9-4.8-26.7s-11.4-7.2-3.4-12.3C171.6,14,174.4,14.9,174.4,14.9z"/>
	<path class="st2" d="M243.7,15.6c0,0-5.9,0.3-17.7,13.8c-17.6,20.1-10.9,20.5-16.5,24.1s-0.2-6.8,2.6-18.9s-3.7-14.5-12.4-18.1
		s-9.8-8.9,10.2-7.5C229.9,10.5,237.8,10.1,243.7,15.6z"/>
	<path class="st3" d="M248.7,28c-14,7.5-19.4,22.2-33.1,34.7c-13.7,12.5-32.9,35.1-21.2,30.1s26.9-17.5,39.1-26.8
		s26.8-9.5,25.7-24.2C258.2,27.2,272.6,15.1,248.7,28z"/>
	<path class="st4" d="M297.1,35.1c8.3,0.5,16.6-4.1,8.5-13c-8.1-8.8-2.6-11.7-8.9-13.2c-6.4-1.5-12.7,3-24.9,3.9
		c-12.3,0.9,2.8,2,2.2,9.3C273.2,29.6,277.7,33.9,297.1,35.1z"/>
	<path class="st2" d="M151.5,29.2c-0.9-2.8-7-9.6-30-4.8s-28.9-3.2-36.7-6c-7.7-2.7-30.7,3.3-3.9,9c26.8,5.6,15.4,11.7,40.4,6
		C146.3,27.8,153.8,36.4,151.5,29.2z"/>
	<path class="st0" d="M181.7,99c-0.3,0-0.5-0.1-0.7-0.3c-0.3-0.2-0.5-0.5-0.6-0.9c-0.1-0.9,0.3-2,12.4-17.7
		c-5.2-2.2-9.9-4.3-12.1-5.6c-6.5-3.8-10.8-7.1-6.2-16.1c4.5-8.8,3.9-14.3-2.1-18.4c-6.8-4.7-22.1-3.7-38.4-2.6
		c-5,0.3-10.1,0.7-15.2,0.9C97.4,39.1,76.3,32,69,25c-1.9-1.8-2.8-3.6-2.8-5.3c0-1.4,0.4-2.4,1.3-2.9c1.8-1.1,4.5,0.2,9.5,2.6
		c6.4,3,15.9,7.6,28.8,9.6c18,2.7,31,2.7,48.7-5.1c23.4-10.4,37.1-9.7,52.9-8.8c3.1,0.2,6.3,0.3,9.7,0.5
		c37.1,1.1,66.5-11.4,68.9-12.5c2.1-1.8,4.2-2.5,6.1-2.1c2.3,0.5,3.7,2.5,4.2,3.4c8.4,3.5,9.4,7.6,10.1,10.6
		c0.3,1.2,0.5,2.1,1.1,2.8l0.3,0.3c2.5,3.1,4.9,6,1.2,11.7c-3.8,5.8-13,3.3-13.4,3.2c-0.1,0-16.5-3.3-26.9,4.6
		c-2.4,1.9-4.6,3.6-6.6,5.1c-7,5.5-12.1,9.5-20.6,13.1l-1.4,0.6c-9.9,4.2-15.4,6.5-27.3,17.2c-2,1.8-4,3.6-6.1,5.4
		c2.4,1.7,4.7,3.2,6.4,4.3c4.5,2.9,5.4,3.6,5.5,4.6c0,0.4-0.1,0.8-0.4,1.1c-0.6,0.6-1.2,1.1-17-5.2c-2.9,2.5-5.6,4.8-8,6.9
		C184.9,97.6,182.7,99,181.7,99z M195.1,81.2c-3.4,4.4-7,9.1-9.4,12.4c3.2-2.5,7.8-6.4,13.1-10.9C197.6,82.2,196.4,81.7,195.1,81.2z
		 M203.4,81.9c2.9,1.2,5.7,2.2,8,3.1c-2-1.3-4.2-2.8-6.5-4.4C204.4,81,203.9,81.5,203.4,81.9z M196.7,79.2c1.4,0.6,2.8,1.1,4.2,1.7
		c0.7-0.6,1.4-1.2,2-1.8c-1.3-1-2.6-2-3.8-3C198.3,77,197.5,78.1,196.7,79.2z M153.7,34.1c8.6,0,15.8,0.9,20.2,3.9
		c9.2,6.4,6.1,15.3,2.9,21.5c-3.7,7.3-0.8,9.5,5.2,12.9c2.2,1.3,7,3.4,12.4,5.7c0.9-1.2,1.9-2.4,2.9-3.8c-3.7-3.5-6.2-7.1-5.9-10.6
		c0.4-4.7,3.1-8.7,5.6-12.6c3.1-4.7,5.9-9.1,5.6-14.6c-0.6-8.9-4.1-13.2-22.3-13.2c-0.7,0-1.2-0.5-1.2-1.2s0.5-1.2,1.2-1.2
		c17.7,0,24,3.9,24.7,15.5c0.4,6.3-2.8,11.3-6,16c-2.5,3.8-4.9,7.5-5.3,11.5c-0.2,2.5,1.9,5.5,5,8.4c3.6-4.7,6.7-8.7,7.6-9.9
		c0.9-1.4,1.9-2.9,3-4.4c10.5-15.7,24.8-37.1,42.5-37.1c0.7,0,1.2,0.5,1.2,1.2s-0.5,1.2-1.2,1.2c-16.3,0-30.3,20.8-40.4,36
		c-1,1.5-2,3-3,4.4c-0.9,1.3-3.9,5.2-7.8,10.2c1.3,1.1,2.7,2.3,4.2,3.3c2.1-1.9,4.3-3.8,6.5-5.8c12.1-11,18.1-13.5,27.9-17.7
		l1.4-0.6c8.2-3.5,13.2-7.4,20-12.8c2-1.6,4.2-3.3,6.6-5.2c11.3-8.6,28.2-5.2,29-5c0.2,0,8,2.1,10.8-2.2c2.7-4.2,1.4-5.8-1-8.8
		l-0.3-0.3c-0.9-1.1-1.3-2.5-1.6-3.8c-0.7-2.8-1.4-6-9.1-9.1c-0.3-0.1-0.5-0.3-0.7-0.6c0,0-1-2.1-2.8-2.4c-1.2-0.2-2.6,0.3-4.1,1.7
		c-0.1,0.1-0.2,0.1-0.3,0.2c-0.3,0.1-31,14-70.1,12.8c-3.4-0.1-6.6-0.3-9.7-0.5c-16.1-0.9-28.9-1.6-51.8,8.6
		c-18.1,8.1-32.1,8.1-50.1,5.3c-13.2-2-23-6.7-29.5-9.8c-3-1.4-6.4-3.1-7.1-2.7c0,0-0.1,0.2-0.1,0.8c0,1,0.7,2.2,2.1,3.5
		c6.9,6.7,27.3,13.4,48,12.7c5-0.2,10.1-0.5,15.1-0.8C140.8,34.6,147.6,34.1,153.7,34.1z"/>
</g>
</svg>
